<svg width="17" height="15" viewBox="0 0 17 15" fill="none" xmlns="http://www.w3.org/2000/svg">
                        <path d="M10.0945 3.20264V1.64014H6.96954V3.20264H10.0945ZM2.28204 5.54639V12.5776C2.28204 13.0073 2.63361 13.3589 3.06329 13.3589H14.0008C14.4305 13.3589 14.782 13.0073 14.782 12.5776V5.54639C14.782 5.1167 14.4305 4.76514 14.0008 4.76514H3.06329C2.63361 4.76514 2.28204 5.1167 2.28204 5.54639ZM14.782 3.20264C15.6492 3.20264 16.3445 3.89795 16.3445 4.76514V13.3589C16.3445 14.2261 15.6492 14.9214 14.782 14.9214H2.28204C1.41486 14.9214 0.719543 14.2261 0.719543 13.3589L0.727356 4.76514C0.727356 3.89795 1.41486 3.20264 2.28204 3.20264H5.40704V1.64014C5.40704 0.772949 6.10236 0.0776367 6.96954 0.0776367H10.0945C10.9617 0.0776367 11.657 0.772949 11.657 1.64014V3.20264H14.782Z" fill="#4D6182" />
                    </svg>