<svg width="27" height="27" viewBox="0 0 27 27" fill="none" xmlns="http://www.w3.org/2000/svg">
<path d="M8.62186 13.6271L12.1287 17.134L19.1425 10.1202M13.2977 25.3167C14.8331 25.3187 16.3537 25.0172 17.7722 24.4296C19.1907 23.8421 20.4792 22.9799 21.5634 21.8928C22.6505 20.8086 23.5126 19.5202 24.1002 18.1016C24.6878 16.6831 24.9893 15.1625 24.9873 13.6271C24.9892 12.0917 24.6878 10.5711 24.1002 9.15258C23.5126 7.73407 22.6505 6.44566 21.5634 5.36139C20.4792 4.27427 19.1907 3.41215 17.7722 2.82457C16.3537 2.23698 14.8331 1.93552 13.2977 1.93751C11.7623 1.93555 10.2417 2.23703 8.82317 2.82461C7.40466 3.41219 6.11626 4.2743 5.03198 5.36139C3.94489 6.44566 3.08279 7.73407 2.4952 9.15258C1.90762 10.5711 1.60615 12.0917 1.6081 13.6271C1.60611 15.1625 1.90757 16.6831 2.49516 18.1016C3.08274 19.5202 3.94487 20.8086 5.03198 21.8928C6.11626 22.9799 7.40466 23.842 8.82317 24.4296C10.2417 25.0172 11.7623 25.3186 13.2977 25.3167Z" stroke="#0055D9" stroke-width="2.33792" stroke-linecap="round" stroke-linejoin="round"/>
</svg>
