<svg width="45" height="35" viewBox="0 0 45 35" fill="none" xmlns="http://www.w3.org/2000/svg">
<path d="M26.5975 33.1279C23.1165 33.1274 19.7345 31.9692 16.984 29.8356C14.2335 27.7021 12.2706 24.7144 11.4045 21.3429C10.5384 17.9713 10.8181 14.4075 12.1997 11.2124C13.5813 8.01735 15.9863 5.37249 19.036 3.69424C22.0857 2.01599 25.607 1.39967 29.0454 1.9423C32.4839 2.48494 35.6442 4.15571 38.0289 6.69159C40.4135 9.22746 41.8871 12.4844 42.2176 15.9497C42.5481 19.415 41.7168 22.8917 39.8544 25.8327L42.2862 33.1279L34.9909 30.6962C32.4816 32.289 29.5697 33.1326 26.5975 33.1279Z" stroke="white" stroke-width="3.48638" stroke-linecap="round" stroke-linejoin="round"/>
<rect width="24.5983" height="17.6256" transform="translate(0.451996 12.9844)" fill="#0055D9"/>
<path d="M9.17881 18.469C8.9087 18.1459 8.52208 17.9844 8.01895 17.9844C7.33045 17.9844 6.86174 18.2412 6.61282 18.7549C6.46983 19.0515 6.38509 19.5229 6.35861 20.169H4.15806C4.19513 19.1892 4.37255 18.3975 4.69032 17.7937C5.29408 16.6444 6.36655 16.0698 7.90773 16.0698C9.12584 16.0698 10.095 16.4088 10.8153 17.0867C11.5356 17.7593 11.8957 18.6517 11.8957 19.7639C11.8957 20.6165 11.6415 21.3739 11.1331 22.0359C10.7994 22.4755 10.2513 22.9654 9.48863 23.5056L8.58299 24.1491C8.0163 24.5516 7.62704 24.8429 7.41519 25.0229C7.20864 25.203 7.03387 25.4122 6.89087 25.6505H11.9196V27.6445H4.03095C4.05214 26.8183 4.22956 26.0636 4.56321 25.3804C4.88628 24.6125 5.64892 23.7995 6.85115 22.9416C7.89449 22.1948 8.56975 21.6599 8.87693 21.3368C9.34828 20.8337 9.58396 20.2829 9.58396 19.6844C9.58396 19.1972 9.44891 18.792 9.17881 18.469ZM21.0872 23.3944V25.1659H19.7843V27.6445H17.5679V25.1659H13.0079V23.1878L17.2422 16.1969H19.7843V23.3944H21.0872ZM14.6842 23.3944H17.5679V18.4213L14.6842 23.3944Z" fill="white"/>
</svg>
