<svg width="20" height="21" viewBox="0 0 20 21" fill="none" xmlns="http://www.w3.org/2000/svg">
<path d="M4.67667 5.34086C6.14917 3.86753 7.92417 3.13086 10 3.13086C12.0758 3.13086 17.5 3.13086 17.5 3.13086C17.5 3.13086 17.5 8.55503 17.5 10.6309C17.5 12.7067 16.7692 14.4759 15.3067 15.9375C13.845 17.4 12.0758 18.1309 10 18.1309C7.92417 18.1309 6.155 17.4 4.69333 15.9375C3.23083 14.4759 2.5 12.7067 2.5 10.6309C2.5 8.55503 3.225 6.79169 4.67667 5.34086ZM13.85 8.12003C13.8717 8.09753 13.8833 8.06419 13.8833 8.02003C13.8833 7.95253 13.8717 7.90753 13.85 7.88503L12.8117 7.08169C12.7892 7.05919 12.745 7.04836 12.6783 7.04836C12.6333 7.04836 12.6 7.05919 12.5775 7.08169L8.86083 11.87C8.35797 11.3907 7.85575 10.9107 7.35417 10.43C7.2875 10.3634 7.22083 10.33 7.15333 10.33C7.13083 10.33 7.08667 10.3634 7.02 10.43L6.14833 11.3009C6.12667 11.3225 6.115 11.3675 6.115 11.4342C6.115 11.4792 6.12667 11.5125 6.14833 11.5342L6.215 11.5684C7.0975 12.4161 7.97944 13.2644 8.86083 14.1134C8.9275 14.18 8.98333 14.2134 9.0275 14.2134C9.0725 14.2134 9.12833 14.18 9.19583 14.1134L13.85 8.12003Z" fill="#0055D9"/>
</svg>
